<?xml version="1.0" encoding="utf-8"?>
<!-- Generator: Adobe Illustrator 21.0.0, SVG Export Plug-In . SVG Version: 6.00 Build 0)  -->
<svg version="1.1" id="Layer_1" xmlns="http://www.w3.org/2000/svg" xmlns:xlink="http://www.w3.org/1999/xlink" x="0px" y="0px"
	 viewBox="0 0 512 512" style="enable-background:new 0 0 512 512;" xml:space="preserve">
<style type="text/css">
	.st0{fill:#3E5905;}
</style>
<path class="st0" d="M427.3,397.3c-10.1,10.1-2.8,27.3,11.3,27.3c14.3,0,21.3-17.3,11.3-27.3C443.7,391,433.6,391,427.3,397.3z
	 M477.8,369.4c3.3,3.3,3.3,8.7,0,12.1c-3.3,3.3-8.7,3.3-12.1,0c-15-15-39.3-15-54.3,0c-1.7,1.7-3.8,2.5-6,2.5
	c-7.5,0-11.4-9.2-6-14.6C421.1,347.7,456.2,347.7,477.8,369.4L477.8,369.4z M509.5,349.8c-3.3,3.3-8.7,3.3-12.1,0
	c-32.5-32.5-85.1-32.5-117.6,0c-3.3,3.3-8.7,3.3-12.1,0c-3.3-3.3-3.3-8.7,0-12.1c39.2-39.2,102.6-39.2,141.8,0
	C512.8,341,512.8,346.4,509.5,349.8L509.5,349.8z M348.7,389.8c0,4.7-3.8,8.5-8.5,8.5h-306C15.3,398.4,0,383,0,364.2V64.6
	c0-18.8,15.3-34.1,34.1-34.1h443.6c18.8,0,34.1,15.3,34.1,34.1v208.3c0,4.7-3.8,8.5-8.5,8.5c-4.7,0-8.5-3.8-8.5-8.5V64.6
	c0-9.4-7.7-17.1-17.1-17.1H34.1c-9.4,0-17.1,7.7-17.1,17.1v257.2h298.6c4.7,0,8.5,3.8,8.5,8.5s-3.8,8.5-8.5,8.5H17.1v25.4
	c0,9.4,7.7,17.1,17.1,17.1h306C344.9,381.3,348.7,385.1,348.7,389.8z M345.5,473c0,4.7-3.8,8.5-8.5,8.5c-106.6,0-79.8,0-162.1,0
	c-4.7,0-8.5-3.8-8.5-8.5c0-4.7,3.8-8.5,8.5-8.5H200l9.6-43.1c1-4.6,5.6-7.5,10.2-6.5c4.6,1,7.5,5.6,6.5,10.2l-8.7,39.4h76.8
	l-8.7-39.4c-1-4.6,1.9-9.2,6.5-10.2c4.6-1,9.2,1.9,10.2,6.5l9.6,43.1H337C341.7,464.5,345.5,468.3,345.5,473L345.5,473z"/>
</svg>
