<?xml version="1.0" encoding="utf-8"?>
<!-- Generator: Adobe Illustrator 21.0.0, SVG Export Plug-In . SVG Version: 6.00 Build 0)  -->
<svg version="1.1" id="Capa_1" xmlns="http://www.w3.org/2000/svg" xmlns:xlink="http://www.w3.org/1999/xlink" x="0px" y="0px"
	 viewBox="0 0 502.2 502.2" style="enable-background:new 0 0 502.2 502.2;" xml:space="preserve">
<style type="text/css">
	.st0{fill:#3E5905;}
</style>
<g>
	<g>
		<path class="st0" d="M499.8,162.3C362.8,24.9,140.3,24.6,2.9,161.6c-0.2,0.2-0.4,0.4-0.7,0.7c-3.1,3.2-3,8.2,0.2,11.3
			c3.1,3,8,3,11.1,0C144.4,42.5,356.7,42.2,487.9,173c0.2,0.2,0.4,0.4,0.6,0.6c3.1,3.1,8.2,3.1,11.3,0S503,165.4,499.8,162.3z"/>
	</g>
</g>
<g>
	<g>
		<path class="st0" d="M454.6,207.5c-53.9-54.2-127.2-84.6-203.6-84.4c-76.4-0.2-149.7,30.2-203.6,84.4c-3.1,3.2-3,8.2,0.2,11.3
			c3.1,3,8,3,11.1,0c106-106.2,278-106.3,384.2-0.3c0.1,0.1,0.2,0.2,0.3,0.3c3.2,3.1,8.2,3,11.3-0.2
			C457.6,215.5,457.6,210.6,454.6,207.5z"/>
	</g>
</g>
<g>
	<g>
		<path class="st0" d="M409.4,252.8c-41.9-42.2-98.9-65.9-158.3-65.7c-59.4-0.2-116.4,23.5-158.3,65.7c-3.1,3.1-3.1,8.2,0,11.3
			s8.2,3.1,11.3,0c80.9-81.2,212.3-81.4,293.5-0.4c0.1,0.1,0.3,0.3,0.4,0.4c3.1,3.1,8.2,3.1,11.3,0
			C412.5,261,412.5,255.9,409.4,252.8z"/>
	</g>
</g>
<g>
	<g>
		<path class="st0" d="M364.1,298c-29.9-30.1-70.6-47-113.1-46.9c-42.4-0.1-83.2,16.8-113.1,46.9c-3.1,3.2-3,8.2,0.2,11.3
			c3.1,3,8,3,11.1,0c56.1-56.2,147.2-56.3,203.4-0.2c0.1,0.1,0.1,0.1,0.2,0.2c3.2,3.1,8.2,3,11.3-0.2
			C367.1,306,367.1,301.1,364.1,298z"/>
	</g>
</g>
<g>
	<g>
		<path class="st0" d="M319.1,343.4c-0.1-0.1-0.1-0.1-0.2-0.2c-18-18-42.4-28.1-67.9-28.1c-25.5,0-49.9,10.1-67.9,28.1
			c-3.2,3.1-3.3,8.1-0.2,11.3s8.1,3.3,11.3,0.2c0.1-0.1,0.1-0.1,0.2-0.2c31.3-31.2,81.9-31.2,113.2,0c3.1,3.2,8.1,3.2,11.3,0.2
			S322.2,346.6,319.1,343.4z"/>
	</g>
</g>
<g>
	<g>
		<path class="st0" d="M273.7,388.5C273.7,388.5,273.7,388.5,273.7,388.5c-12.7-12.1-32.6-12.1-45.3,0c-12.5,12.5-12.5,32.8,0,45.3
			s32.8,12.5,45.3,0C286.2,421.3,286.2,401,273.7,388.5z M251,427.1c-8.8,0-16-7.2-16-16s7.2-16,16-16c8.8,0,16,7.2,16,16
			S259.9,427.1,251,427.1z"/>
	</g>
</g>
</svg>
