<?xml version="1.0" encoding="utf-8"?>
<!-- Generator: Adobe Illustrator 21.0.0, SVG Export Plug-In . SVG Version: 6.00 Build 0)  -->
<svg version="1.1" id="Capa_1" xmlns="http://www.w3.org/2000/svg" xmlns:xlink="http://www.w3.org/1999/xlink" x="0px" y="0px"
	 viewBox="0 0 512 512" style="enable-background:new 0 0 512 512;" xml:space="preserve">
<style type="text/css">
	.st0{fill:#3E5905;}
</style>
<g id="Page-1">
	<g id="_x30_20---Wine-Cooler">
		<path id="Shape" class="st0" d="M115.2,460.8H81.1c-4.7,0-8.5-3.8-8.5-8.5v-51.2c0-4.7-3.8-8.5-8.5-8.5s-8.5,3.8-8.5,8.5v51.2
			c0,14.1,11.5,25.6,25.6,25.6h34.1c4.7,0,8.5-3.8,8.5-8.5C123.7,464.6,119.9,460.8,115.2,460.8z"/>
		<path id="Shape_1_" class="st0" d="M174.9,25.6c0-14.1-11.5-25.6-25.6-25.6h-25.6c-14.1,0-25.6,11.5-25.6,25.6v69.3
			c0,13-5.9,25.2-16,33.3l-4.3,3.4c-14.2,11.3-22.4,28.5-22.4,46.6v35.1H38.4c-9.4,0-17.1,7.6-17.1,17.1v221.9
			c0,33,26.8,59.7,59.7,59.7H192c33,0,59.7-26.8,59.7-59.7V230.4c0-9.4-7.6-17.1-17.1-17.1h-17.1v-35.1c0-18.2-8.2-35.3-22.4-46.6
			l-4.3-3.4c-10.1-8.1-16-20.3-16-33.3V25.6z M123.7,17.1h25.6c4.7,0,8.5,3.8,8.5,8.5v34.1h-42.7V25.6
			C115.2,20.9,119,17.1,123.7,17.1z M234.7,452.3c0,23.6-19.1,42.6-42.7,42.7H81.1c-23.6,0-42.6-19.1-42.7-42.7V230.4h196.3V452.3z
			 M180.3,141.5l4.3,3.4c10.1,8.1,16,20.3,16,33.3l0,35.1h-128l0-35.1c0-13,5.9-25.2,16-33.3l4.3-3.4c14.2-11.3,22.4-28.5,22.4-46.6
			V76.8h42.7v18.1C157.8,113,166.1,130.2,180.3,141.5L180.3,141.5z"/>
		<path id="Shape_2_" class="st0" d="M113.7,144.9c-3.1,3.6-6.5,6.9-10.2,9.9l-4.3,3.4c-6.1,4.8-9.6,12.2-9.6,20v9.5
			c0,4.7,3.8,8.5,8.5,8.5c4.7,0,8.5-3.8,8.5-8.5v-9.5c0-2.6,1.2-5,3.2-6.7l4.3-3.4c4.5-3.6,8.7-7.6,12.5-12c2-2.3,2.7-5.5,1.7-8.4
			c-1-2.9-3.5-5-6.5-5.6S115.7,142.6,113.7,144.9L113.7,144.9z"/>
		<path id="Shape_3_" class="st0" d="M490.7,204.8c-1.6-23.3-5.3-46.4-11.1-69.1v-0.1c-5.6-25-12.8-49.5-21.5-73.6
			c-2.6-6.6-8.9-10.9-15.9-10.9H317.3c-7,0-13.4,4.3-15.9,10.9c-8.7,24.1-15.9,48.6-21.5,73.6v0.1c-5.8,22.6-9.5,45.7-11.1,69.1
			c0.1,51.4,35.4,95.9,85.3,107.8v131.1h-3.8c-4.6,0-9.2,1.3-13.2,3.7l-30.3,18.2c-7.7,4.6-12.4,13-12.4,21.9v7.4
			c0,9.4,7.6,17.1,17.1,17.1H448c9.4,0,17.1-7.6,17.1-17.1v-7.4c0-9-4.7-17.3-12.4-21.9l-30.3-18.2c-4-2.4-8.5-3.7-13.2-3.7h-3.8
			V312.6C455.3,300.7,490.6,256.2,490.7,204.8z M317.3,68.3l124.9-0.1c7.7,21,14,42.5,19.1,64.3c-3.3,1.6-6.4,3.4-9.5,5.5
			c-12.3,9.5-29.5,9.5-41.8,0c-18-13.3-42.6-13.3-60.7,0c-12.3,9.5-29.4,9.5-41.7,0c-3-2.1-6.2-3.9-9.5-5.5
			C303.3,110.7,309.7,89.3,317.3,68.3L317.3,68.3z M285.9,204.8c1.2-18.6,4-37,8.4-55.1c1.3,0.8,2.6,1.6,4,2.5
			c18,13.3,42.6,13.3,60.6,0c12.3-9.5,29.4-9.5,41.7,0c18.1,13.3,42.7,13.3,60.7,0c1.3-0.9,2.6-1.7,3.9-2.5
			c4.4,18.1,7.2,36.5,8.4,55.1c0,51.8-42,93.9-93.9,93.9S285.9,256.6,285.9,204.8L285.9,204.8z M413.5,462l30.3,18.2
			c2.6,1.5,4.1,4.3,4.1,7.3v7.4H311.5v-7.4c0-3,1.6-5.8,4.1-7.3l30.3-18.2c1.3-0.8,2.8-1.2,4.4-1.2h58.8
			C410.7,460.8,412.2,461.2,413.5,462z M388.3,443.7h-17.1V315.3c2.8,0.2,5.6,0.4,8.5,0.4s5.7-0.2,8.5-0.4V443.7z"/>
		<path id="Shape_4_" class="st0" d="M456.5,204.8c0-4.7-3.8-8.5-8.5-8.5c-4.7,0-8.5,3.8-8.5,8.5c0,33-26.8,59.7-59.7,59.7
			c-4.7,0-8.5,3.8-8.5,8.5s3.8,8.5,8.5,8.5C422.1,281.6,456.5,247.2,456.5,204.8z"/>
	</g>
</g>
</svg>
